<?xml version="1.0" encoding="UTF-8"?>
<svg xmlns="http://www.w3.org/2000/svg" width="40" height="40" viewBox="0 0 40 40" fill="none">
  <g id="award-quality-svgrepo-com 1" clip-path="url(#clip0_191_15052)">
    <g id="Group">
      <g id="Group_2">
        <g id="Group_3">
          <path id="Vector" d="M37.7304 17.0435C37.1148 16.5896 36.3461 16.0226 36.2452 15.6487C36.1356 15.2383 36.5269 14.334 36.8435 13.6087C37.3844 12.3618 37.9443 11.0731 37.3235 9.99831C36.6939 8.90959 35.2852 8.75135 33.9217 8.59834C33.1461 8.51135 32.1791 8.40358 31.8887 8.11312C31.5982 7.82266 31.4904 6.85744 31.4035 6.08005C31.2504 4.7166 31.0904 3.30791 30.0035 2.67831C28.927 2.05394 27.64 2.6157 26.3948 3.15831C25.6713 3.47307 24.7704 3.86437 24.3548 3.7566C23.9791 3.65747 23.4121 2.8888 22.9582 2.27136C22.1739 1.20693 21.2834 0 20 0C18.7165 0 17.826 1.20693 17.0434 2.26956C16.5895 2.88522 16.0225 3.65388 15.6487 3.75481C15.2382 3.86087 14.3339 3.47307 13.6087 3.15652C12.3634 2.61391 11.0747 2.05394 9.99823 2.67652C8.9095 3.30611 8.75127 4.71481 8.59826 6.07826C8.51127 6.85394 8.4035 7.82086 8.11304 8.11133C7.82258 8.40179 6.85736 8.50956 6.07997 8.59654C4.71652 8.74956 3.30782 8.90959 2.67823 9.99652C2.05565 11.0696 2.61562 12.3583 3.15823 13.6052C3.47299 14.3305 3.86608 15.2331 3.75652 15.6452C3.65739 16.0209 2.88872 16.5879 2.27128 17.0418C1.20693 17.8261 0 18.7165 0 20C0 21.2834 1.20693 22.1739 2.26956 22.9565C2.88522 23.4104 3.65388 23.9774 3.75481 24.3513C3.86437 24.7617 3.47307 25.666 3.15652 26.3913C2.61562 27.6382 2.05565 28.9269 2.67652 30.0017C3.30611 31.0904 4.71481 31.2486 6.07826 31.4017C6.85394 31.4886 7.82086 31.5964 8.11133 31.8869C8.40179 32.1773 8.50956 33.1443 8.59654 33.9199C8.74956 35.2834 8.90787 36.6921 9.9948 37.3217C11.0679 37.9426 12.3583 37.3843 13.6052 36.8417C14.3287 36.5269 15.2331 36.1356 15.6452 36.2434C16.0209 36.3425 16.5879 37.1112 17.0418 37.7286C17.8261 38.793 18.7166 39.9999 20 39.9999C21.2835 39.9999 22.174 38.793 22.9583 37.7304C23.4122 37.1147 23.9792 36.346 24.3531 36.2451C24.7617 36.132 25.6678 36.5269 26.3931 36.8434C27.64 37.3843 28.9252 37.946 30.0035 37.3234C31.0922 36.6938 31.2504 35.2851 31.4035 33.9217C31.4886 33.1443 31.5982 32.1791 31.887 31.8886C32.1756 31.5981 33.1426 31.4904 33.92 31.4034C35.2835 31.2504 36.6922 31.0903 37.3218 30.0034C37.9443 28.9303 37.3844 27.6416 36.8418 26.3947C36.527 25.6695 36.1339 24.7669 36.2435 24.3547C36.3426 23.979 37.1113 23.412 37.7287 22.9581C38.7931 22.1738 40 21.2834 40 19.9999C40 18.7164 38.793 17.8261 37.7304 17.0435ZM36.6991 21.5582C35.7773 22.2382 34.8226 22.9409 34.5652 23.9044C34.2974 24.9026 34.7808 26.0139 35.2487 27.0887C35.5478 27.7774 36 28.8173 35.8191 29.1322C35.6295 29.4609 34.4851 29.5896 33.7286 29.6748C32.5739 29.8052 31.3791 29.9392 30.6591 30.6592C29.9391 31.3792 29.8069 32.5722 29.6765 33.727C29.5913 34.4835 29.4626 35.6278 29.1339 35.8174C28.8173 36.0018 27.7774 35.5461 27.0887 35.247C26.0139 34.7792 24.9043 34.294 23.9044 34.5636C22.9409 34.8209 22.2383 35.7757 21.5582 36.6975C21.0974 37.3183 20.4052 38.261 20 38.261C19.5947 38.261 18.9008 37.3201 18.4417 36.6975C17.7617 35.7757 17.0591 34.8209 16.0956 34.5636C15.8973 34.5097 15.6955 34.487 15.4903 34.487C14.6591 34.487 13.7738 34.8714 12.913 35.2505C12.2225 35.5496 11.1808 36.0035 10.8677 35.8209C10.539 35.6295 10.4103 34.4869 10.3268 33.7304C10.1964 32.5757 10.0625 31.3809 9.34247 30.6609C8.62247 29.9409 7.42768 29.8069 6.27293 29.6765C5.51641 29.5913 4.37209 29.4626 4.18247 29.1339C3.99986 28.8191 4.45377 27.7774 4.75288 27.0887C5.21894 26.0139 5.70244 24.9026 5.43635 23.9044C5.17899 22.9409 4.22421 22.2383 3.30244 21.5582C2.68157 21.0974 1.73894 20.4035 1.73894 20C1.73894 19.5964 2.68157 18.9026 3.29894 18.4435C4.2207 17.7635 5.17549 17.0609 5.43285 16.0974C5.70065 15.0991 5.21722 13.9878 4.74937 12.913C4.45027 12.2243 3.99807 11.1844 4.17896 10.8695C4.3703 10.5408 5.5129 10.4121 6.26942 10.3269C7.42418 10.1965 8.61896 10.0625 9.33896 9.34255C10.059 8.62255 10.1929 7.42777 10.3233 6.27301C10.4085 5.51649 10.5372 4.37217 10.8659 4.18255C11.1842 4.00165 12.2225 4.45386 12.9112 4.75296C13.9859 5.21902 15.0937 5.70252 16.0955 5.43644C17.059 5.17907 17.7615 4.22429 18.4416 3.30253C18.9024 2.68166 19.5963 1.73902 19.9999 1.73902C20.4034 1.73902 21.0972 2.68166 21.5564 3.29902C22.2363 4.22079 22.939 5.17557 23.9025 5.43293C24.9025 5.70252 26.012 5.21731 27.0868 4.74945C27.7755 4.45035 28.8155 3.99815 29.1303 4.17905C29.459 4.37038 29.5877 5.51299 29.6729 6.26951C29.8033 7.42426 29.9373 8.61904 30.6573 9.33904C31.3773 10.059 32.5721 10.193 33.7268 10.3234C34.4833 10.4086 35.6277 10.5373 35.8173 10.866C35.9999 11.1808 35.546 12.2225 35.2469 12.9112C34.7808 13.986 34.2973 15.0973 34.5634 16.0956C34.8208 17.0591 35.7755 17.7616 36.6973 18.4417C37.3182 18.9025 38.2608 19.5964 38.2608 20C38.2608 20.4035 37.3183 21.0974 36.6991 21.5582Z" fill="white"></path>
          <path id="Vector_2" d="M32.2724 15.6574L24.8915 14.8383L20.7611 7.4052C20.455 6.85387 19.5471 6.85387 19.2411 7.4052L15.1106 14.8383L7.72974 15.6574C7.39754 15.6956 7.11409 15.92 7.00453 16.2348C6.89325 16.5496 6.97322 16.9009 7.20972 17.1374L12.968 22.8957L11.3211 31.1339C11.255 31.4661 11.3872 31.8069 11.6602 32.0069C11.935 32.2087 12.3003 32.2295 12.5959 32.0643L19.9993 27.9513L27.4028 32.0643C27.5349 32.1373 27.681 32.1738 27.8254 32.1738C28.0063 32.1738 28.1871 32.1182 28.3419 32.0069C28.6149 31.8069 28.7472 31.466 28.6811 31.1339L27.0341 22.8956L32.7924 17.1373C33.0289 16.9008 33.1089 16.5495 32.9976 16.2347C32.8863 15.9183 32.6045 15.6939 32.2724 15.6574ZM25.4724 21.9948C25.2672 22.2018 25.1767 22.4957 25.2341 22.7809L26.6045 29.6314L20.4219 26.1966C20.2898 26.1236 20.1437 26.087 19.9993 26.087C19.855 26.087 19.7089 26.1236 19.5767 26.1966L13.3941 29.6314L14.7646 22.7809C14.8203 22.4957 14.7316 22.2001 14.5263 21.9948L9.71936 17.1861L15.7472 16.5166C16.0272 16.4852 16.2741 16.3218 16.4115 16.0748L19.9993 9.61737L23.5872 16.0748C23.7245 16.32 23.9716 16.4852 24.2515 16.5166L30.2793 17.1861L25.4724 21.9948Z" fill="white"></path>
        </g>
      </g>
    </g>
  </g>
  <defs>
    <clipPath id="clip0_191_15052">
      <rect width="40" height="40" fill="white"></rect>
    </clipPath>
  </defs>
</svg>
