<?xml version="1.0" encoding="UTF-8"?>
<svg xmlns="http://www.w3.org/2000/svg" width="18" height="10" viewBox="0 0 18 10" fill="none">
  <g id="Group">
    <path id="Vector" d="M15.9597 4.18079C16.2157 3.85859 16.4189 3.60007 16.569 3.40503C17.6498 2.00583 18.1183 1.112 17.9747 0.722314L17.9184 0.631048C17.881 0.57623 17.7839 0.525889 17.6279 0.480322C17.4716 0.434788 17.2717 0.427512 17.0282 0.457571L14.3291 0.476108C14.2667 0.47005 14.2041 0.471465 14.1416 0.480322C14.0792 0.489573 14.0386 0.498858 14.0197 0.507715C14.0009 0.516999 13.9854 0.52444 13.973 0.530498L13.9356 0.557891C13.9043 0.576032 13.87 0.608067 13.8325 0.653832C13.795 0.699563 13.7636 0.752571 13.7388 0.813612C13.4451 1.54966 13.1109 2.23415 12.736 2.86686C12.5048 3.24407 12.2923 3.5713 12.0988 3.84773C11.9051 4.12478 11.7427 4.32852 11.6114 4.45906C11.4803 4.58984 11.3615 4.695 11.2554 4.77382C11.149 4.8532 11.0679 4.88645 11.0118 4.87437C10.9555 4.86228 10.9023 4.8502 10.8524 4.83769C10.7649 4.7831 10.6945 4.70873 10.6416 4.61423C10.5884 4.52017 10.5526 4.40145 10.5337 4.25839C10.5151 4.11553 10.504 3.99223 10.501 3.88865C10.4977 3.78531 10.4994 3.63942 10.5058 3.4506C10.512 3.26198 10.5151 3.13446 10.5151 3.06736C10.5151 2.83643 10.5199 2.58539 10.5293 2.31459C10.5385 2.04398 10.5464 1.82939 10.5526 1.67119C10.5588 1.51322 10.5619 1.34576 10.5619 1.16926C10.5619 0.993147 10.551 0.854504 10.5289 0.753986C10.507 0.653831 10.4741 0.556508 10.4307 0.462016C10.3868 0.367919 10.3229 0.294762 10.2384 0.243203C10.154 0.191413 10.0495 0.150521 9.92453 0.119869C9.5932 0.0467119 9.17148 0.00763092 8.65931 0.00121073C7.49716 -0.0104773 6.75053 0.0624496 6.41943 0.220419C6.28823 0.287519 6.16945 0.378587 6.06331 0.494249C5.95074 0.62825 5.93522 0.701374 6.01655 0.713062C6.3915 0.767881 6.65683 0.898852 6.81305 1.10558L6.86935 1.21499C6.913 1.29437 6.95669 1.43423 7.00054 1.6349C7.04423 1.83561 7.07236 2.05765 7.08497 2.30106C7.11622 2.74514 7.11622 3.12518 7.08497 3.44174C7.05373 3.75827 7.02414 4.00451 6.99601 4.18062C6.96784 4.35713 6.92565 4.49999 6.86955 4.60939C6.81325 4.7192 6.77582 4.7861 6.75699 4.81046C6.73815 4.83463 6.72263 4.84994 6.71022 4.85603C6.6289 4.88625 6.54467 4.90156 6.45716 4.90156C6.36962 4.90156 6.26345 4.85883 6.13848 4.77359C6.01347 4.68877 5.88373 4.5715 5.74962 4.42239C5.61512 4.2735 5.46384 4.06496 5.29497 3.79716C5.12631 3.52978 4.95123 3.21322 4.77016 2.84832L4.62033 2.58354C4.5266 2.41349 4.39848 2.16544 4.23605 1.84002C4.07361 1.5146 3.92977 1.19988 3.805 0.895428C3.75492 0.767881 3.67999 0.670557 3.58007 0.603458L3.53331 0.576065C3.50206 0.551866 3.45199 0.525889 3.38328 0.498661C3.31437 0.471268 3.24278 0.451513 3.16765 0.439232L0.599778 0.457374C0.337388 0.457374 0.159429 0.515419 0.065699 0.631048L0.028234 0.685669C0.00929862 0.716289 0 0.765049 0 0.831753C0 0.898852 0.0188339 0.980866 0.0562989 1.07799C0.431253 1.93596 0.838938 2.76331 1.27929 3.56001C1.71987 4.35713 2.1025 4.99908 2.42738 5.4857C2.75226 5.97271 3.08335 6.43171 3.42088 6.8637C3.7584 7.2957 3.98167 7.57233 4.09092 7.69385C4.20017 7.81577 4.28606 7.90707 4.34858 7.96768L4.58283 8.18689C4.73266 8.33281 4.95305 8.50767 5.24361 8.7116C5.53413 8.9155 5.85573 9.11621 6.20898 9.31368C6.56182 9.51156 6.97278 9.67252 7.44126 9.79747C7.90978 9.92238 8.36585 9.97253 8.80951 9.94797H9.88727C10.106 9.92982 10.2715 9.86315 10.3839 9.74726L10.4214 9.70173C10.4462 9.66544 10.4698 9.60905 10.4917 9.53306C10.5134 9.4571 10.5247 9.37328 10.5247 9.28221C10.5182 9.02069 10.5387 8.78453 10.5855 8.57497C10.6322 8.36501 10.6854 8.20704 10.7448 8.10027C10.8042 7.99405 10.8712 7.9042 10.9463 7.83105C11.0213 7.75789 11.0743 7.71417 11.1057 7.69886C11.1369 7.68394 11.162 7.67327 11.1807 7.66682C11.3305 7.61823 11.507 7.66541 11.7102 7.80826C11.9132 7.95155 12.1038 8.12763 12.282 8.33758C12.4599 8.54754 12.6739 8.78308 12.9239 9.04483C13.1736 9.30634 13.3923 9.50099 13.5798 9.62873L13.7673 9.73857C13.8923 9.8113 14.0545 9.8782 14.2547 9.93927C14.4546 9.99992 14.6296 10.0152 14.7794 9.98481L17.1786 9.94813C17.416 9.94813 17.6004 9.91027 17.7316 9.83408C17.8628 9.75852 17.9409 9.6743 17.9659 9.58323C17.9907 9.49197 17.9924 9.38901 17.9706 9.27312C17.9487 9.15766 17.9268 9.07706 17.9051 9.03152C17.8832 8.98599 17.8628 8.9477 17.844 8.91748C17.5316 8.37001 16.9349 7.69761 16.054 6.90071L16.0351 6.88257L16.0259 6.87332L16.0166 6.86443H16.0072C15.6071 6.49328 15.3543 6.24381 15.2481 6.11587C15.0544 5.87289 15.0105 5.62645 15.1169 5.37702C15.1914 5.18787 15.4724 4.78932 15.9597 4.18079Z" fill="white"></path>
  </g>
</svg>
