<?xml version="1.0" encoding="UTF-8"?>
<svg xmlns="http://www.w3.org/2000/svg" width="70" height="70" viewBox="0 0 70 70" fill="none">
  <g id="la:money-bill-wave-alt">
    <path id="Vector" d="M49.9931 13.1424C44.1087 13.3043 39.5478 14.9012 35.1072 16.4456C30.3581 18.0949 25.8759 19.6502 19.6656 19.7137C15.5159 19.7793 11.3597 19.0618 7.27562 17.6487L4.375 16.6468V54.0137L5.83187 54.5321C9.63594 55.8774 13.5253 56.654 17.3972 56.8377C18.0119 56.8662 18.6134 56.8815 19.2041 56.8815C25.795 56.8815 30.8416 55.1315 35.735 53.4427C40.8931 51.6577 45.7581 49.9712 52.3972 50.284C55.9162 50.4648 59.3897 51.1605 62.7069 52.349L65.625 53.3815V15.9993L64.1856 15.4743C60.4634 14.1187 56.5559 13.3397 52.5984 13.1643C51.7305 13.1258 50.8615 13.1185 49.9931 13.1424ZM50.1113 17.4868C50.855 17.4649 51.6163 17.4649 52.4059 17.4956C53.2241 17.5306 54.0422 17.6049 54.8581 17.7012C55.1909 19.0737 56.0429 20.2638 57.2348 21.0214C58.4268 21.7789 59.866 22.0449 61.25 21.7634V41.674C60.5334 41.5282 59.7948 41.5278 59.0781 41.673C58.3614 41.8181 57.6811 42.1059 57.0777 42.5191C56.4744 42.9323 55.9602 43.4625 55.5658 44.0783C55.1713 44.6941 54.9046 45.3828 54.7816 46.1037C54.057 46.0292 53.3304 45.9752 52.6028 45.9418C45.1325 45.6137 39.6244 47.4927 34.3 49.339C29.1353 51.1284 24.2419 52.8193 17.6072 52.5043C16.7809 52.4611 15.9564 52.3881 15.1353 52.2856C14.7997 50.9168 13.9475 49.731 12.7574 48.9762C11.5672 48.2215 10.1312 47.9564 8.75 48.2365V28.3259C9.47088 28.4726 10.214 28.4719 10.9346 28.3239C11.6552 28.1759 12.3385 27.8837 12.9432 27.4647C13.5479 27.0458 14.0616 26.5088 14.4534 25.8861C14.8451 25.2635 15.1069 24.568 15.2228 23.8415C16.7213 23.9968 18.2197 24.0865 19.7137 24.0624C26.6372 23.9924 31.6706 22.2402 36.5422 20.5471C40.8319 19.0531 44.9203 17.6487 50.1113 17.4868ZM35 26.2499C35 29.3977 33.7728 30.6249 30.625 30.6249V34.9999C32.3225 34.9999 33.7684 34.6696 35 34.0987V43.7499H39.375V26.2499H35ZM51.4062 28.4374C50.536 28.4374 49.7014 28.7831 49.0861 29.3985C48.4707 30.0138 48.125 30.8484 48.125 31.7187C48.125 32.5889 48.4707 33.4235 49.0861 34.0389C49.7014 34.6542 50.536 34.9999 51.4062 34.9999C52.2765 34.9999 53.1111 34.6542 53.7264 34.0389C54.3418 33.4235 54.6875 32.5889 54.6875 31.7187C54.6875 30.8484 54.3418 30.0138 53.7264 29.3985C53.1111 28.7831 52.2765 28.4374 51.4062 28.4374ZM18.5938 34.9999C17.7235 34.9999 16.8889 35.3456 16.2736 35.961C15.6582 36.5763 15.3125 37.4109 15.3125 38.2812C15.3125 39.1514 15.6582 39.986 16.2736 40.6014C16.8889 41.2167 17.7235 41.5624 18.5938 41.5624C19.464 41.5624 20.2986 41.2167 20.9139 40.6014C21.5293 39.986 21.875 39.1514 21.875 38.2812C21.875 37.4109 21.5293 36.5763 20.9139 35.961C20.2986 35.3456 19.464 34.9999 18.5938 34.9999Z" fill="#00BAD4"></path>
  </g>
</svg>
