<?xml version="1.0" encoding="UTF-8"?>
<svg xmlns="http://www.w3.org/2000/svg" width="70" height="70" viewBox="0 0 70 70" fill="none">
  <g id="la:user-cog">
    <path id="Vector" d="M35 10.9375C26.4688 10.9375 19.6875 17.7188 19.6875 26.25C19.6725 28.7588 20.2778 31.2324 21.4494 33.4508C22.621 35.6692 24.3227 37.5638 26.4031 38.9659C18.6156 42.3194 13.125 50.0763 13.125 59.0625H17.5C17.5 49.4375 25.375 41.5625 35 41.5625C43.5312 41.5625 50.3125 34.7812 50.3125 26.25C50.3125 17.7188 43.5312 10.9375 35 10.9375ZM35 15.3125C41.125 15.3125 45.9375 20.125 45.9375 26.25C45.9375 32.375 41.125 37.1875 35 37.1875C28.875 37.1875 24.0625 32.375 24.0625 26.25C24.0625 20.125 28.875 15.3125 35 15.3125ZM52.7188 39.375V43.9688C51.4062 44.1875 50.0938 44.8438 49 45.5L45.7188 42.2187L42.6562 45.2812L45.9375 48.5625C45.0625 49.6562 44.625 50.9688 44.4062 52.5H39.375V56.875H43.9688C44.1875 58.1875 44.8437 59.5 45.5 60.8125L42.2187 64.0938L45.2812 67.1562L48.5625 63.875C49.6562 64.5312 50.9688 65.1875 52.2812 65.4062V70H56.6562V65.4062C57.9688 65.1875 59.2812 64.5312 60.375 63.875L63.6562 67.1562L66.7188 64.0938L63.4375 60.8125C64.3125 59.7188 64.75 58.4062 64.9688 56.875H70V52.5H65.4062C65.1875 51.1875 64.5312 49.875 63.875 48.5625L67.1562 45.2812L64.0938 42.2187L60.8125 45.5C59.7188 44.8438 58.4062 44.1875 57.0938 43.9688V39.375H52.7188ZM54.6875 48.125C58.4062 48.125 61.25 50.9688 61.25 54.6875C61.25 58.4062 58.4062 61.25 54.6875 61.25C50.9688 61.25 48.125 58.4062 48.125 54.6875C48.125 50.9688 50.9688 48.125 54.6875 48.125ZM54.6875 52.5C54.4094 52.5034 54.1354 52.5676 53.8847 52.6881C53.6244 52.8119 53.3875 52.9799 53.1847 53.1847C52.9799 53.3875 52.8119 53.6244 52.6881 53.8847C52.5676 54.1354 52.5034 54.4094 52.5 54.6875C52.5 55.5078 53.1147 56.3281 53.8847 56.6869C54.1354 56.8074 54.4094 56.8716 54.6875 56.875C55.7812 56.875 56.875 55.7812 56.875 54.6875C56.875 53.5938 55.7812 52.5 54.6875 52.5Z" fill="#00BAD4"></path>
  </g>
</svg>
