<?xml version="1.0" encoding="UTF-8"?>
<svg xmlns="http://www.w3.org/2000/svg" width="70" height="49" viewBox="0 0 70 49" fill="none">
  <path id="Vector" d="M0 0.125V4.5H41.5625V37.3125H28.0963C27.1206 33.5522 23.7388 30.75 19.6875 30.75C15.6362 30.75 12.2544 33.5522 11.2788 37.3125H8.75V26.375H4.375V41.6875H11.2788C12.2544 45.4478 15.6362 48.25 19.6875 48.25C23.7388 48.25 27.1206 45.4478 28.0963 41.6875H46.2788C47.2544 45.4478 50.6362 48.25 54.6875 48.25C58.7388 48.25 62.1206 45.4478 63.0962 41.6875H70V23.8463L69.8622 23.5028L65.4872 10.3778L65.0125 8.875H45.9375V0.125H0ZM2.1875 8.875V13.25H21.875V8.875H2.1875ZM45.9375 13.25H61.8647L65.625 24.4609V37.3125H63.0962C62.1206 33.5522 58.7388 30.75 54.6875 30.75C50.6362 30.75 47.2544 33.5522 46.2788 37.3125H45.9375V13.25ZM4.375 17.625V22H17.5V17.625H4.375ZM19.6875 35.125C22.1309 35.125 24.0625 37.0566 24.0625 39.5C24.0625 41.9434 22.1309 43.875 19.6875 43.875C17.2441 43.875 15.3125 41.9434 15.3125 39.5C15.3125 37.0566 17.2441 35.125 19.6875 35.125ZM54.6875 35.125C57.1309 35.125 59.0625 37.0566 59.0625 39.5C59.0625 41.9434 57.1309 43.875 54.6875 43.875C52.2441 43.875 50.3125 41.9434 50.3125 39.5C50.3125 37.0566 52.2441 35.125 54.6875 35.125Z" fill="#00BAD4"></path>
</svg>
