<?xml version="1.0" encoding="UTF-8"?>
<svg xmlns="http://www.w3.org/2000/svg" width="58" height="52" viewBox="0 0 58 52" fill="none">
  <path id="Vector" d="M13.6875 0.75V7.82438L6.06625 3.25031L3.80875 6.99969L7.97812 9.5H0.5625V51.0625H13.6875V46.6875H4.9375V13.875H22.4966C24.3188 12.5188 26.5588 11.6875 29 11.6875C29.77 11.6875 30.4919 11.7794 31.1875 11.9106V9.5H23.7741L27.9412 6.99969L25.6838 3.25031L18.0625 7.82438V0.75H13.6875ZM29 16.0625C25.4016 16.0625 22.4375 19.0266 22.4375 22.625C22.4375 23.395 22.6016 24.1213 22.8487 24.8125H18.0625V51.0625H57.4375V24.8125H52.6512C52.9149 24.1129 53.054 23.3726 53.0625 22.625C53.0625 19.0266 50.0984 16.0625 46.5 16.0625C42.6719 16.0625 40.0731 18.9675 38.3647 21.3956C38.135 21.7172 37.9534 22.0387 37.75 22.3559C37.5444 22.0387 37.365 21.7216 37.1353 21.3934C35.4247 18.9675 32.8281 16.0625 29 16.0625ZM29 20.4375C30.3672 20.4375 32.1456 21.9053 33.5128 23.8566C33.8453 24.3334 33.795 24.3619 34.0597 24.8169H29C27.7619 24.8169 26.8125 23.8675 26.8125 22.6294C26.8075 22.3405 26.8606 22.0536 26.9687 21.7857C27.0768 21.5178 27.2377 21.2743 27.4417 21.0699C27.6458 20.8654 27.8889 20.704 28.1566 20.5954C28.4243 20.4867 28.7111 20.4331 29 20.4375ZM46.5 20.4375C47.7381 20.4375 48.6875 21.3869 48.6875 22.625C48.6875 23.8631 47.7381 24.8125 46.5 24.8125H41.4403C41.7072 24.3597 41.6547 24.3313 41.9872 23.8544C43.3566 21.9075 45.1328 20.4375 46.5 20.4375ZM22.4375 29.1875H35.5625V46.6875H22.4375V29.1875ZM39.9375 29.1875H53.0625V46.6875H39.9375V29.1875Z" fill="#00BAD4"></path>
</svg>
